<svg width="25" height="25" viewBox="0 0 25 25" fill="none" xmlns="http://www.w3.org/2000/svg">
<g id="Iconly/Light/2 User">
<g id="2 User">
<path id="Stroke 1" fill-rule="evenodd" clip-rule="evenodd" d="M9.842 16C13.531 16 16.684 16.559 16.684 18.792C16.684 21.025 13.552 21.6 9.842 21.6C6.152 21.6 3 21.046 3 18.812C3 16.578 6.131 16 9.842 16Z" stroke="#9E9E9E" stroke-width="1.5" stroke-linecap="round" stroke-linejoin="round"/>
<path id="Stroke 3" fill-rule="evenodd" clip-rule="evenodd" d="M10.386 12.5198C7.964 12.5198 6 10.5568 6 8.13482C6 5.71282 7.964 3.74982 10.386 3.74982C12.807 3.74982 14.771 5.71282 14.771 8.13482C14.78 10.5478 12.83 12.5108 10.417 12.5198H10.386Z" stroke="#9E9E9E" stroke-width="1.5" stroke-linecap="round" stroke-linejoin="round"/>
<path id="Stroke 5" d="M18 10.518C19.601 10.293 20.834 8.919 20.837 7.256C20.837 5.617 19.642 4.257 18.075 4" stroke="#9E9E9E" stroke-width="1.5" stroke-linecap="round" stroke-linejoin="round"/>
<path id="Stroke 7" d="M18 14C19.551 14.231 20.634 14.775 20.634 15.895C20.634 16.666 20.124 17.166 19.3 17.479" stroke="#9E9E9E" stroke-width="1.5" stroke-linecap="round" stroke-linejoin="round"/>
</g>
</g>
</svg>
